<svg width="32" height="47" viewBox="0 0 32 47" fill="none" xmlns="http://www.w3.org/2000/svg">
<path d="M23.7246 46.75C24.6402 46.7479 25.5455 46.709 26.2412 46.6348C26.5899 46.5975 26.8784 46.5522 27.0869 46.5C27.1916 46.4738 27.2685 46.4484 27.3193 46.4248C27.3405 46.415 27.3527 46.4067 27.3594 46.4023C27.3629 46.3945 27.3713 46.3773 27.3818 46.3457C27.3971 46.2998 27.415 46.2378 27.4336 46.1602C27.4707 46.005 27.5098 45.799 27.5488 45.5566C27.6073 45.1935 27.6635 44.755 27.709 44.2939L27.751 43.8271L27.917 41.5303L27.9297 41.3652L28.085 41.3115L30.0186 40.6455L30.0234 40.6436C30.5283 40.4808 30.9901 40.2862 31.3223 40.1143C31.4892 40.0278 31.617 39.9507 31.6992 39.8896C31.7069 39.8839 31.7133 39.8771 31.7197 39.8721C31.7064 39.8441 31.6911 39.8097 31.6699 39.7705C31.6034 39.6476 31.5054 39.485 31.3848 39.2949C31.1441 38.9155 30.8192 38.4383 30.4873 37.9697C30.1555 37.5013 29.8191 37.0443 29.5537 36.7061C29.4206 36.5363 29.3073 36.3994 29.2236 36.3066C29.2061 36.2872 29.1893 36.2719 29.1758 36.2578C29.1675 36.2602 29.1586 36.262 29.1494 36.2646C29.06 36.2903 28.9335 36.3282 28.7793 36.374C28.4722 36.4653 28.0541 36.5905 27.6045 36.7236C26.6773 36.9982 24.9195 37.2334 23.667 37.2334C18.1795 37.2334 13.7337 34.5227 11.2119 29.6104L10.9736 29.1279C10.4894 28.1099 10.219 27.4675 10.0752 26.666C9.93301 25.8736 9.91699 24.9334 9.91699 23.3232C9.91699 21.777 9.94143 20.832 10.0703 20.0547C10.1682 19.4646 10.3248 18.9754 10.5674 18.3994L10.8398 17.7871L10.8408 17.7861C13.4856 12.1602 19.9248 8.66245 25.7764 9.68262L25.7754 9.68359C26.9455 9.88408 28.2185 10.1509 28.627 10.2529L28.6387 10.2559L28.6494 10.2598C28.7626 10.2997 28.8509 10.3093 28.9336 10.2959C29.0181 10.2821 29.1199 10.2406 29.2529 10.1436C29.46 9.99247 29.7115 9.73146 30.0576 9.31348L30.4365 8.8418L30.4404 8.83789C30.8186 8.37775 31.1551 7.91745 31.3965 7.55762C31.5174 7.37739 31.6128 7.22459 31.6768 7.11133C31.6936 7.0815 31.7062 7.05463 31.7178 7.03223C31.6549 6.98273 31.556 6.91867 31.4219 6.8457C31.2191 6.73543 30.9541 6.61234 30.6543 6.48828L30.3438 6.36426C29.7647 6.15748 29.3091 5.98723 28.958 5.81445C28.6045 5.64047 28.3351 5.45348 28.1436 5.2041C27.95 4.95203 27.8541 4.65929 27.8047 4.30566C27.7561 3.95712 27.75 3.5292 27.75 2.99902C27.75 2.21215 27.7601 1.66067 27.708 1.25488C27.6571 0.858314 27.5537 0.665263 27.3779 0.542969C27.1797 0.405102 26.8424 0.321197 26.2266 0.282227C25.6196 0.24383 24.7975 0.249999 23.667 0.25C22.0299 0.25 21.0547 0.275919 20.4697 0.352539C20.1765 0.390955 20.0047 0.439874 19.9023 0.491211C19.8157 0.53468 19.7859 0.575393 19.7686 0.618164C19.7291 0.740998 19.6816 1.02796 19.6445 1.41504C19.6077 1.79912 19.583 2.25788 19.583 2.69922C19.583 3.64562 19.4743 4.42364 19.2529 4.97461C19.0327 5.52274 18.6672 5.91384 18.1338 5.91406C18.1076 5.91406 18.0228 5.92913 17.8672 5.97461C17.7219 6.0171 17.5383 6.07931 17.3291 6.15723C16.9115 6.31273 16.4013 6.52547 15.9072 6.75586H15.9082L14.1084 7.62207L13.957 7.69531L13.833 7.58301L12.1338 6.05078C11.6757 5.64194 11.1852 5.26682 10.7715 4.99512C10.5643 4.8591 10.38 4.75107 10.2314 4.67871C10.1571 4.64251 10.0949 4.61675 10.0459 4.60059C10.0218 4.59265 10.0027 4.58789 9.98828 4.58496C9.98277 4.58385 9.97792 4.58444 9.97461 4.58398C9.96729 4.58644 9.95188 4.59099 9.92773 4.60254C9.88017 4.6253 9.81611 4.6623 9.73633 4.71484C9.57728 4.81962 9.37301 4.97397 9.13574 5.16797C8.66186 5.55542 8.07262 6.08729 7.47754 6.65723C6.88272 7.22692 6.2847 7.83223 5.7959 8.36621C5.31162 8.89527 4.95147 9.3384 4.79492 9.60449C4.79371 9.62086 4.79357 9.66397 4.81836 9.74707C4.85211 9.86008 4.92071 10.012 5.03223 10.2031C5.19898 10.4889 5.44998 10.8436 5.78809 11.2607L6.15527 11.6982H6.15625L7.78906 13.5977L7.89355 13.7188L7.82812 13.8633L7.06152 15.5625C6.86156 16.0289 6.6374 16.5514 6.43848 17.0195L5.96582 18.1514L5.96387 18.1562L5.82617 18.459C5.68396 18.7403 5.5159 18.9542 5.21777 19.0801C5.03306 19.1581 4.81319 19.1963 4.54785 19.2168C4.28126 19.2374 3.94922 19.2422 3.5332 19.2422C3.0433 19.2422 2.50352 19.275 2.03027 19.332C1.54826 19.3902 1.16243 19.47 0.964844 19.5547L0.957031 19.5586L0.948242 19.5615L0.683594 19.6611C0.616543 19.6912 0.56822 19.7208 0.52832 19.7549C0.462259 19.8113 0.399833 19.901 0.352539 20.1191C0.303797 20.344 0.277197 20.6753 0.263672 21.1865C0.250239 21.6947 0.25 22.3641 0.25 23.2568C0.250002 24.2648 0.260727 25.035 0.303711 25.626C0.347049 26.2216 0.421534 26.6093 0.536133 26.8652C0.643081 27.1041 0.783268 27.2256 0.985352 27.2988C1.20844 27.3796 1.5161 27.4043 1.9668 27.4043C2.94852 27.4043 3.89217 27.5058 4.5957 27.6602C4.94551 27.7369 5.24814 27.829 5.46875 27.9346C5.57818 27.9869 5.68029 28.0489 5.75879 28.123C5.83554 28.1955 5.91698 28.3069 5.91699 28.4541C5.91791 28.4598 5.92065 28.4768 5.92871 28.5088C5.93961 28.5521 5.95688 28.6094 5.98047 28.6807C6.02772 28.8233 6.09802 29.0113 6.18652 29.2314C6.31912 29.5612 6.49103 29.9595 6.6875 30.3818L6.8916 30.8105L6.89258 30.8125L7.89258 32.9111L7.96582 33.0645L7.84961 33.1885L6.55078 34.5869H6.55176C5.93817 35.259 5.49473 35.7407 5.20996 36.1406C4.92693 36.5381 4.8327 36.812 4.85742 37.0684C4.88329 37.335 5.04238 37.6415 5.41504 38.0908C5.78538 38.5373 6.33235 39.086 7.07812 39.8398L7.07715 39.8408C7.80763 40.5543 8.50438 41.2071 9.04102 41.6816C9.31005 41.9195 9.53598 42.1097 9.70508 42.2393C9.79017 42.3044 9.85686 42.351 9.9043 42.3799C9.90748 42.3818 9.91024 42.3841 9.91309 42.3857C9.9503 42.3693 10.0015 42.3422 10.0674 42.3037C10.2001 42.2262 10.3747 42.1106 10.5801 41.9648C10.9895 41.6743 11.5087 41.2717 12.0371 40.8262V40.8252L13.9375 39.1934L14.0723 39.0771L14.2256 39.166L15.2588 39.7656L15.2598 39.7666C15.6681 40.0067 16.3597 40.3069 16.9854 40.5391L17.5762 40.7432C17.9556 40.8639 18.327 41.0196 18.623 41.1719C18.7708 41.2479 18.9035 41.3255 19.0107 41.3994C19.0856 41.4511 19.1623 41.51 19.2217 41.5752L19.2744 41.6426C19.3102 41.6963 19.3359 41.7611 19.3545 41.8184C19.3744 41.8795 19.3925 41.9508 19.4092 42.0283C19.4426 42.1839 19.4725 42.3786 19.498 42.5977C19.5492 43.0367 19.583 43.5885 19.583 44.1475C19.583 44.7026 19.6241 45.2385 19.6924 45.6602C19.7266 45.8715 19.7673 46.0492 19.8105 46.1836C19.834 46.2564 19.8556 46.3078 19.873 46.3428L19.9102 46.4023C19.913 46.4043 19.9359 46.4214 19.999 46.4453C20.065 46.4703 20.1555 46.4955 20.2705 46.5205C20.5004 46.5706 20.8074 46.6137 21.1689 46.6484C21.8907 46.7177 22.8093 46.7521 23.7246 46.75Z" fill="#C288FF" stroke="black" stroke-width="0.5"/>
</svg>
